<svg xmlns="http://www.w3.org/2000/svg" xmlns:xlink="http://www.w3.org/1999/xlink" viewBox="0 0 296.56 296.56"><defs><style>.cls-1{isolation:isolate;}.cls-2{fill:#ededed;}.cls-13,.cls-3{mix-blend-mode:multiply;opacity:0.2;}.cls-3{fill:url(#Degradado_sin_nombre_3);}.cls-11,.cls-12,.cls-4{fill:#fff;}.cls-5{fill:#bd2655;}.cls-6{fill:#d42a60;}.cls-7{fill:#0089ad;}.cls-8{fill:#00a7d4;}.cls-9{fill:#004b5e;}.cls-10{fill:#002630;}.cls-11,.cls-12{stroke:#222221;stroke-miterlimit:10;}.cls-11{stroke-width:0.88px;}.cls-12{stroke-width:0.55px;}.cls-13{fill:url(#Degradado_sin_nombre_3-2);}</style><linearGradient id="Degradado_sin_nombre_3" x1="35.55" y1="166.07" x2="296.56" y2="166.07" gradientUnits="userSpaceOnUse"><stop offset="0" stop-color="#222221" stop-opacity="0"/><stop offset="1" stop-color="#222221"/></linearGradient><linearGradient id="Degradado_sin_nombre_3-2" x1="214.84" y1="148.28" x2="150.2" y2="148.28" xlink:href="#Degradado_sin_nombre_3"/></defs><g class="cls-1"><g id="OBJECTS"><circle class="cls-2" cx="148.28" cy="148.28" r="148.28" transform="translate(-61.42 148.28) rotate(-45)"/><path class="cls-3" d="M296.56,148.28c0-3.86-.19-7.68-.48-11.46l-.27-.27h0l-.07-.07h0c-.15-.15-.3-.29-.44-.44q-2.24-2.37-4.59-4.59l-.42-.42h0l-.07-.07h0l-.44-.44c-.21-.23-.45-.44-.67-.66s-.29-.29-.43-.44c-1.13-1.2-2.31-2.34-3.49-3.49l-.42-.42c-.23-.22-.45-.46-.68-.68l-.42-.42h0l-.07-.07h0c-.14-.15-.3-.29-.44-.44q-2.24-2.36-4.59-4.59c-.14-.14-.27-.28-.42-.42h0l-.07-.07h0c-.14-.15-.29-.29-.44-.44s-.45-.44-.66-.66-.3-.29-.44-.44c-1.13-1.2-2.31-2.34-3.49-3.49l-.41-.41c-.24-.23-.46-.47-.69-.69s-.27-.28-.42-.42h0l-.07-.07h0c-.14-.15-.3-.29-.44-.44q-2.22-2.36-4.59-4.59c-.14-.13-.27-.28-.42-.41h0l-.07-.07c-.14-.15-.29-.28-.43-.43l-.18-.18-.42-.42-.07-.07h0c-.14-.15-.3-.29-.44-.44q-2.22-2.36-4.59-4.59c-.14-.13-.27-.28-.42-.42h0l-.07-.07h0c-.14-.15-.29-.28-.43-.43s-.45-.44-.67-.67l-.44-.44c-1.13-1.19-2.31-2.34-3.49-3.49-.14-.13-.27-.28-.41-.41s-.45-.47-.69-.69l-.42-.42h0l-.07-.07h0c-.14-.15-.29-.29-.44-.43q-2.22-2.37-4.59-4.6c-.14-.13-.27-.28-.41-.41h0l-.06-.06h0c-.14-.15-.29-.28-.43-.43s-.45-.44-.67-.67l-.44-.44c-1.13-1.19-2.3-2.34-3.48-3.48-.15-.14-.28-.28-.42-.42s-.45-.47-.69-.69-.27-.28-.41-.41h0l-.06-.06h0l-.43-.43q-2.24-2.37-4.6-4.59c-.14-.14-.27-.29-.41-.42h0l-.07-.07h0c-.14-.15-.3-.29-.44-.44s-.45-.44-.67-.67-.29-.28-.43-.43c-1.13-1.2-2.31-2.35-3.49-3.49l-.42-.42c-.23-.22-.45-.46-.69-.69l-.41-.41h0l-.69-.69-.42-.41c-.23-.23-.45-.47-.68-.69l-.42-.42c-.23-.22-.45-.46-.69-.69s-.27-.28-.41-.41l-.4-.38-.32-.28c-.49-.46-1-.9-1.5-1.35-.24-.2-.47-.41-.7-.62l-1.08-.93-.42-.35-1.69-1.39-.41-.34-.43-.34,0,0-.66-.52-.68-.52c-.57-.44-1.14-.88-1.72-1.31l-.28-.21-.54-.39c-.12-.09-.26-.16-.38-.26q-2.8-2-5.73-3.86c-.14-.08-.26-.18-.4-.26l-.26-.17-.28-.17L205.23,51l-.63-.37-.66-.38-.2-.11-.34-.2-.36-.19c-.73-.41-1.47-.81-2.21-1.2l-.35-.19-.37-.19-.35-.18-.53-.27-.54-.27c-.77-.38-1.53-.77-2.31-1.14l-.22-.11-.64-.29c-1.12-.51-2.23-1-3.37-1.52-1.37-.58-2.77-1.12-4.17-1.64l0,0-.2-.06c-.89-.34-1.79-.64-2.69-1l-.45-.15-.47-.16-.59-.21-.22-.07c-.51-.17-1-.36-1.53-.52l-1.71-.48-.25-.07-.82-.24-.31-.08c-.76-.22-1.5-.45-2.26-.65l-1.11-.25-.81-.19-.46-.1c-2.2-.52-4.41-1-6.65-1.35l-1-.19h-.11c-1-.16-2-.3-3-.43-.71-.09-1.42-.19-2.13-.27-.89-.1-1.78-.19-2.68-.27s-1.95-.16-2.92-.23l-2.07-.12c-1.73-.08-3.46-.14-5.2-.14h0a114.09,114.09,0,0,0-17.16,1.3l-.95.17h0c-1.54.25-3.07.51-4.59.82-1.19.25-2.37.54-3.54.82l-.81.19c-1.13.28-2.25.58-3.37.9l-1.38.39c-1.08.32-2.17.65-3.24,1l-1.28.44c-1.12.38-2.24.76-3.34,1.17l0,0c-2.55,1-5.06,2-7.53,3.16l-.64.29c-1,.49-2,1-3.07,1.52-.42.21-.84.42-1.25.64-1,.51-2,1-2.92,1.58l-1.2.69c-.7.41-1.42.8-2.12,1.22l-.84.54-.26.17c-1.17.72-2.34,1.45-3.47,2.22s-2,1.44-3,2.16l-.54.39c-.91.66-1.8,1.35-2.68,2l-1.12.88c-.43.35-.88.67-1.3,1s-.81.71-1.22,1.06l-1.08.93c-.59.52-1.21,1-1.79,1.55l-.73.7-.4.38c-1.87,1.75-3.69,3.57-5.44,5.44l-.38.4c-.23.25-.47.48-.7.73-.53.59-1,1.2-1.55,1.8l-.93,1.06c-.7.83-1.4,1.68-2.08,2.53-.3.37-.59.74-.88,1.12-.69.88-1.38,1.77-2,2.68-.12.17-.24.35-.37.52-.73,1-1.47,2-2.17,3.06s-1.5,2.3-2.23,3.47l-.16.26c-.61,1-1.19,2-1.76,3L50,93.15c-.26.48-.54.93-.8,1.41s-.52,1-.78,1.52-.43.83-.64,1.25c-.52,1-1,2-1.52,3.08-.1.2-.18.41-.28.61-1.14,2.48-2.21,5-3.17,7.56l0,0c-.41,1.1-.79,2.22-1.17,3.34-.15.42-.3.85-.44,1.28-.35,1.08-.68,2.16-1,3.25-.14.45-.27.91-.39,1.36-.32,1.12-.62,2.25-.9,3.38-.07.26-.12.53-.18.79a112.89,112.89,0,0,0-.83,49c.25,1.2.54,2.38.82,3.56.07.26.12.53.19.79.28,1.13.58,2.25.9,3.37.12.46.25.92.39,1.37.32,1.09.65,2.17,1,3.25.14.43.29.86.44,1.28.38,1.12.76,2.24,1.17,3.34l0,0q1.45,3.84,3.17,7.55c.1.2.18.41.28.61.49,1,1,2.06,1.52,3.08.21.42.42.84.64,1.25.51,1,1,2,1.58,2.93l.69,1.18c.57,1,1.15,2,1.76,3l.16.26q2.1,3.35,4.4,6.53c.13.17.25.35.37.52.67.91,1.36,1.8,2,2.68.29.38.58.75.88,1.12s.67.88,1,1.3.71.82,1.06,1.23l.93,1.06c.52.6,1,1.21,1.55,1.8.23.25.47.48.7.73l.38.4c.35.38.74.73,1.1,1.1s.74.73,1.1,1.1c1.08,1.09,2.13,2.2,3.24,3.24l.07.07c.36.34.68.7,1,1l.07.07c.35.33.67.7,1,1l.07.07L74.74,234c.71.7,1.39,1.44,2.13,2.13l.07.07c.35.34.68.7,1,1l.08.08c.35.33.67.69,1,1l.07.07c.35.34.67.7,1,1l.07.07c.72.71,1.4,1.45,2.14,2.14.37.36.72.75,1.1,1.1a.46.46,0,0,1,.07.07c.35.34.68.7,1,1l.08.08c.35.33.67.7,1,1l.07.07,1.1,1.1c.72.71,1.4,1.45,2.14,2.14l.07.07c.35.34.68.7,1,1l.07.07c.35.34.68.7,1,1l.08.08c.35.33.67.7,1,1l.07.07c.72.71,1.4,1.45,2.13,2.13.38.37.73.75,1.11,1.11l.07.07c.35.34.68.7,1,1l.07.07c.35.34.68.7,1,1l.07.08,1.1,1.1c.72.71,1.4,1.45,2.14,2.14l.07.07c.35.33.67.7,1,1l.07.07c.35.34.68.7,1,1l.07.07c.36.34.68.7,1,1l.07.07,1.1,1.1c.35.34.68.7,1,1s.73.75,1.11,1.11l.07.07c.35.33.67.7,1,1l.07.07c.35.34.68.7,1,1l.08.08c.35.33.67.69,1,1l.07.07c.72.7,1.4,1.45,2.13,2.13.38.36.73.75,1.11,1.11l.07.07c.35.34.67.7,1,1l.07.07c.35.34.68.7,1,1l.08.08,1.1,1.1c.72.71,1.4,1.45,2.13,2.13l.08.08c.35.33.67.7,1,1l.07.07c.35.34.68.7,1,1l.07.07c.35.34.68.7,1,1l.08.08c.71.7,1.4,1.44,2.13,2.13.38.36.72.75,1.1,1.1l.08.08c.35.33.67.7,1,1l.07.07c.35.34.68.7,1,1l.07.07,1.11,1.11c.71.7,1.4,1.44,2.13,2.13l.07.07c.36.34.68.7,1,1l.07.07c.35.33.67.7,1,1l.07.07c.35.34.68.7,1,1l.07.07,1.37,1.37c3.8.3,7.62.49,11.49.49A148.28,148.28,0,0,0,296.56,148.28Z"/><circle class="cls-4" cx="148.26" cy="148.28" r="112.71"/><polygon class="cls-5" points="90.64 121.79 136.17 174.58 160.35 121.98 90.64 121.79"/><polygon class="cls-5" points="205.88 174.77 160.35 121.98 136.17 174.58 205.88 174.77"/><polygon class="cls-6" points="174.75 90.67 121.96 136.19 174.56 160.37 174.75 90.67"/><polygon class="cls-6" points="121.77 205.9 174.56 160.37 121.96 136.19 121.77 205.9"/><path class="cls-7" d="M148.26,35.57A112.71,112.71,0,1,0,261,148.28,112.71,112.71,0,0,0,148.26,35.57Zm0,214.16A101.45,101.45,0,1,1,249.71,148.28,101.45,101.45,0,0,1,148.26,249.73Z"/><path class="cls-8" d="M48.45,130.17a101.51,101.51,0,0,1,81.7-81.7V37A112.78,112.78,0,0,0,37,130.17Z"/><path class="cls-8" d="M166.37,48.47a101.51,101.51,0,0,1,81.7,81.7H259.5A112.78,112.78,0,0,0,166.37,37Z"/><path class="cls-8" d="M248.07,166.39a101.51,101.51,0,0,1-81.7,81.7v11.43a112.78,112.78,0,0,0,93.13-93.13Z"/><path class="cls-8" d="M130.15,248.09a101.51,101.51,0,0,1-81.7-81.7H37a112.78,112.78,0,0,0,93.13,93.13Z"/><polygon class="cls-8" points="117.92 66.32 133.78 153.64 162.75 142.92 117.92 66.32"/><polygon class="cls-7" points="117.92 66.32 148.26 148.28 162.75 142.92 117.92 66.32"/><polygon class="cls-8" points="178.6 230.24 162.75 142.92 133.78 153.64 178.6 230.24"/><polygon class="cls-7" points="178.6 230.24 162.75 142.92 148.26 148.28 178.6 230.24"/><polygon class="cls-9" points="230.22 117.94 142.9 133.8 153.62 162.76 230.22 117.94"/><polygon class="cls-10" points="230.22 117.94 148.26 148.28 153.62 162.76 230.22 117.94"/><polygon class="cls-9" points="66.3 178.62 153.62 162.76 142.9 133.8 66.3 178.62"/><polygon class="cls-10" points="66.3 178.62 153.62 162.76 148.26 148.28 66.3 178.62"/><path class="cls-11" d="M162.29,154.73a15.44,15.44,0,1,1-7.58-20.48A15.43,15.43,0,0,1,162.29,154.73Z"/><path class="cls-12" d="M157,152.31a9.65,9.65,0,1,1-4.74-12.8A9.64,9.64,0,0,1,157,152.31Z"/><circle class="cls-9" cx="148.26" cy="148.28" r="22.94" transform="translate(-48.02 222.05) rotate(-65.6)"/><path class="cls-10" d="M162.75,142.92a15.45,15.45,0,1,1-19.85-9.13A15.45,15.45,0,0,1,162.75,142.92Z"/><path class="cls-13" d="M257.88,122c-.07-.27-.12-.54-.19-.81-.28-1.13-.58-2.26-.9-3.37-.12-.46-.25-.92-.39-1.37-.32-1.09-.65-2.17-1-3.25-.14-.43-.29-.86-.44-1.28-.38-1.12-.76-2.24-1.17-3.34l0,0c-1-2.56-2-5.08-3.17-7.56-.1-.2-.18-.41-.28-.61-.49-1-1-2.06-1.52-3.08-.21-.42-.42-.84-.64-1.25-.51-1-1-2-1.58-2.92l-.69-1.2c-.57-1-1.15-2-1.76-3l-.16-.26q-2.1-3.34-4.4-6.53c-.13-.17-.25-.35-.37-.52-.67-.91-1.36-1.8-2-2.68-.29-.38-.58-.75-.88-1.12-.68-.85-1.38-1.7-2.08-2.53l-.93-1.06c-.74-.85-1.48-1.7-2.25-2.53l-.38-.4c-1.75-1.87-3.57-3.69-5.44-5.44l-.4-.38c-.83-.77-1.67-1.51-2.52-2.25l-1.08-.93c-.83-.7-1.67-1.4-2.52-2.08l-1.12-.88c-.88-.69-1.77-1.38-2.68-2l-.54-.39c-2.11-1.53-4.28-3-6.51-4.38l-.26-.17c-1-.61-2-1.19-3-1.76L203.4,50c-1-.54-1.94-1.07-2.92-1.58-.41-.22-.83-.43-1.25-.64-1-.52-2-1-3.07-1.52l-.64-.29c-1.12-.51-2.23-1-3.37-1.52-1.37-.58-2.77-1.12-4.17-1.64l0,0c-1.1-.41-2.22-.79-3.34-1.17l-1.28-.44c-.51-.17-1-.36-1.53-.52l-1.71-.48-1.38-.39c-.76-.22-1.5-.45-2.26-.65l-1.11-.25-.81-.19q-4-1-8.13-1.64h0a113.77,113.77,0,0,0-18.11-1.47V261a113,113,0,0,0,26.25-3.11l.81-.19,1.11-.25c.76-.2,1.51-.43,2.26-.65.46-.12.92-.25,1.37-.39s1.15-.31,1.72-.48,1-.35,1.53-.52l1.28-.44c1.12-.38,2.24-.76,3.34-1.17l0,0c1.4-.53,2.79-1.06,4.16-1.64,1.14-.48,2.26-1,3.39-1.53l.61-.28c1-.49,2.06-1,3.08-1.52.42-.21.84-.42,1.25-.64s1-.51,1.52-.78.93-.54,1.4-.8l1.2-.69c1-.57,2-1.15,3-1.76l.26-.16q3.35-2.1,6.53-4.4l.52-.37c.28-.21.57-.4.84-.61.63-.46,1.23-1,1.84-1.44l1.12-.88c.85-.68,1.7-1.38,2.53-2.08l1.06-.93c.6-.52,1.21-1,1.8-1.55l.73-.7.4-.38c1.87-1.75,3.69-3.57,5.44-5.44l.38-.4c.23-.25.47-.48.7-.73.53-.59,1-1.2,1.55-1.8l.93-1.06c.35-.41.71-.81,1.06-1.23s.68-.87,1-1.3.59-.74.88-1.12c.69-.88,1.38-1.77,2-2.68.12-.17.24-.35.37-.52.73-1,1.47-2,2.17-3.06s1.5-2.3,2.23-3.47l.16-.26c.18-.28.37-.56.54-.84.42-.7.81-1.42,1.22-2.12l.69-1.2c.54-1,1.07-1.94,1.58-2.92.22-.41.43-.83.64-1.25.52-1,1-2,1.52-3.08.1-.2.18-.41.28-.61q1.71-3.71,3.17-7.55l0,0c.41-1.1.79-2.22,1.17-3.34.15-.42.3-.85.44-1.28.35-1.08.68-2.16,1-3.25.14-.45.27-.91.39-1.37.32-1.12.62-2.24.9-3.37.07-.27.13-.54.19-.81.28-1.18.57-2.35.82-3.54a113,113,0,0,0-.82-49Z"/></g></g></svg>