<svg xmlns="http://www.w3.org/2000/svg" fill='white' viewBox="0 0 440.09 409.85"><g id="Слой_2" data-name="Слой 2"><g id="Слой_1-2" data-name="Слой 1"><path d="M220,409.85c-79.53,0-144.23-64.7-144.23-144.23S140.51,121.39,220,121.39s144.23,64.7,144.23,144.23S299.57,409.85,220,409.85Zm0-278.45c-74,0-134.23,60.21-134.23,134.23S146,399.86,220,399.86s134.23-60.21,134.23-134.23S294.05,131.4,220,131.4Z"/><path d="M298,348.55a5,5,0,0,1-3.54-8.53,105.2,105.2,0,1,0-148.78,0,5,5,0,0,1-7.07,7.07,115.2,115.2,0,1,1,162.92,0A5,5,0,0,1,298,348.55Z"/><path d="M220,183.05a5,5,0,0,1-5-5V155.43a5,5,0,0,1,10,0v22.62A5,5,0,0,1,220,183.05Z"/><path d="M176.26,194.78a5,5,0,0,1-4.33-2.5l-11.31-19.59a5,5,0,0,1,8.66-5l11.31,19.59a5,5,0,0,1-4.33,7.5Z"/><path d="M144.19,226.84a5,5,0,0,1-2.5-.67L122.1,214.86a5,5,0,1,1,5-8.66l19.59,11.31a5,5,0,0,1-2.5,9.33Z"/><path d="M132.46,270.63H109.84a5,5,0,0,1,0-10h22.62a5,5,0,1,1,0,10Z"/><path d="M330.24,270.63H307.62a5,5,0,0,1,0-10h22.62a5,5,0,0,1,0,10Z"/><path d="M295.89,226.84a5,5,0,0,1-2.5-9.33L313,206.2a5,5,0,0,1,5,8.66l-19.59,11.31A5,5,0,0,1,295.89,226.84Z"/><path d="M263.82,194.78a5,5,0,0,1-4.33-7.5l11.31-19.59a5,5,0,0,1,8.66,5l-11.31,19.59A5,5,0,0,1,263.82,194.78Z"/><path d="M124.61,325.73a5,5,0,0,1-2.5-9.33l19.59-11.31a5,5,0,1,1,5,8.66l-19.59,11.31A5,5,0,0,1,124.61,325.73Z"/><path d="M315.47,325.73a5,5,0,0,1-2.5-.67l-19.59-11.31a5,5,0,0,1,5-8.66L318,316.4a5,5,0,0,1-2.5,9.33Z"/><path d="M220,288.37A22.74,22.74,0,1,1,239.74,277,22.6,22.6,0,0,1,220,288.37Zm.06-35.49a13,13,0,0,0-3.32.44,12.68,12.68,0,1,0,3.32-.44Z"/><path d="M235.85,262.56a4.88,4.88,0,0,1-1.5-.23,5,5,0,0,1-3.27-6.27l6.59-21-14.85,16.18a5,5,0,1,1-7.36-6.76l30-32.73a5,5,0,0,1,8.45,4.88l-13.32,42.38A5,5,0,0,1,235.85,262.56Z"/><path d="M190.91,321.08a5,5,0,0,1-4.77-6.5l13.32-42.38a5,5,0,0,1,9.54,3l-6.59,20.95L217.26,280a5,5,0,0,1,7.36,6.76l-30,32.73A4.94,4.94,0,0,1,190.91,321.08Z"/><path d="M271.84,376.72H168.24a5,5,0,0,1-5-5V345.5a5,5,0,0,1,5-5H271.83a5,5,0,0,1,5,5v26.22A5,5,0,0,1,271.84,376.72Zm-98.6-10h93.59V350.5H173.24v16.22Z"/><path d="M202.07,376.72a5,5,0,0,1-5-5V345.5a5,5,0,0,1,10,0v26.22A5,5,0,0,1,202.07,376.72Z"/><path d="M238,376.72a5,5,0,0,1-5-5V345.5a5,5,0,0,1,10,0v26.22A5,5,0,0,1,238,376.72Z"/><path d="M370.12,283.77H358.65a5,5,0,0,1,0-10h11.47a60,60,0,0,0,29.81-112,5,5,0,0,1-1.85-6.82A60,60,0,0,0,313,75.2,5,5,0,0,1,305.22,71v-.3c0-.23,0-.46,0-.69a60,60,0,0,0-103-41.7,5,5,0,0,1-5.7,1.06,60,60,0,0,0-85.13,52.34,5,5,0,0,1-4.23,4.77,60.35,60.35,0,0,0-50.7,59.25c0,1.74.08,3.54.24,5.34a5,5,0,0,1-3.58,5.24A60,60,0,0,0,70,273.77H81.43a5,5,0,0,1,0,10H70A70,70,0,0,1,46.46,147.9c0-.74,0-1.48,0-2.22a70,70,0,0,1,55.19-68.39,70,70,0,0,1,95.88-58.43A69.32,69.32,0,0,1,245.27,0a70.07,70.07,0,0,1,69.58,62.59,70,70,0,0,1,94.16,93,70,70,0,0,1-38.89,128.14Z"/></g></g></svg>