<?xml version="1.0" encoding="utf-8"?>
<!-- Generator: Adobe Illustrator 27.2.0, SVG Export Plug-In . SVG Version: 6.00 Build 0)  -->
<svg version="1.1" id="Слой_1" xmlns="http://www.w3.org/2000/svg" xmlns:xlink="http://www.w3.org/1999/xlink" x="0px" y="0px"
	 viewBox="0 0 63 63" style="enable-background:new 0 0 63 63;" xml:space="preserve">
<style type="text/css">
	.st0{fill:#F9FF00;}
	.st1{opacity:0.43;fill:#FFBC00;}
</style>
<g id="Слой_2_00000177483855122360786830000000121896129121213315_">
</g>
<path class="st0" d="M31.5,63"/>
<path class="st1" d="M54.8,34.3C54.8,34.3,54.8,34.3,54.8,34.3L54.8,34.3L54.8,34.3z"/>
<g>
	<g id="_Слой_2">
		<g id="Layer_1">
			<circle class="st0" cx="31.4" cy="31.5" r="18.3"/>
		</g>
	</g>
	<path class="st1" d="M49.7,31.5c0,10.1-8.2,18.4-18.4,18.4c0,0,15.9-4.1,18-22.1C49.6,28.9,49.7,30.2,49.7,31.5z"/>
</g>
<path class="st0" d="M31.5,12.2L31.5,12.2c-1.1,0-2-0.9-2-2V2.7c0-1.1,0.9-2,2-2h0c1.1,0,2,0.9,2,2v7.5
	C33.5,11.3,32.6,12.2,31.5,12.2z"/>
<path class="st0" d="M31.3,62.6L31.3,62.6c-1.1,0-2-0.9-2-2v-7.5c0-1.1,0.9-2,2-2h0c1.1,0,2,0.9,2,2v7.5
	C33.3,61.7,32.4,62.6,31.3,62.6z"/>
<path class="st0" d="M50.7,31.5L50.7,31.5c0-1.1,0.9-2,2-2h7.5c1.1,0,2,0.9,2,2v0c0,1.1-0.9,2-2,2h-7.5
	C51.6,33.5,50.7,32.6,50.7,31.5z"/>
<path class="st0" d="M0.6,31.5L0.6,31.5c0-1.1,0.9-2,2-2h7.5c1.1,0,2,0.9,2,2v0c0,1.1-0.9,2-2,2H2.6C1.5,33.5,0.6,32.6,0.6,31.5z"/>
<path class="st0" d="M45.4,45.3L45.4,45.3c0.8-0.8,2-0.8,2.8,0l5.3,5.3c0.8,0.8,0.8,2,0,2.8l0,0c-0.8,0.8-2,0.8-2.8,0l-5.3-5.3
	C44.6,47.3,44.6,46,45.4,45.3z"/>
<path class="st0" d="M9.7,9.6L9.7,9.6c0.8-0.8,2-0.8,2.8,0l5.3,5.3c0.8,0.8,0.8,2,0,2.8l0,0c-0.8,0.8-2,0.8-2.8,0l-5.3-5.3
	C8.9,11.7,8.9,10.4,9.7,9.6z"/>
<path class="st0" d="M9.5,53.4L9.5,53.4c-0.8-0.8-0.8-2,0-2.8l5.3-5.3c0.8-0.8,2-0.8,2.8,0l0,0c0.8,0.8,0.8,2,0,2.8l-5.3,5.3
	C11.5,54.2,10.2,54.2,9.5,53.4z"/>
<path class="st0" d="M45.6,17.2L45.6,17.2c-0.8-0.8-0.8-2,0-2.8l5.3-5.3c0.8-0.8,2-0.8,2.8,0l0,0c0.8,0.8,0.8,2,0,2.8l-5.3,5.3
	C47.7,18,46.4,18,45.6,17.2z"/>
</svg>
