<?xml version="1.0" encoding="utf-8"?>
<!-- Generator: Adobe Illustrator 26.1.0, SVG Export Plug-In . SVG Version: 6.00 Build 0)  -->
<svg version="1.1" id="_Слой_2" xmlns="http://www.w3.org/2000/svg" xmlns:xlink="http://www.w3.org/1999/xlink" x="0px"
	 y="0px" viewBox="0 0 77.5 68.7" style="enable-background:new 0 0 77.5 68.7;" xml:space="preserve">
<style type="text/css">
	.st0{fill:url(#SVGID_1_);}
	.st1{fill:url(#SVGID_00000107587423733786392260000005976925114534955163_);}
	.st2{opacity:0.9;fill:#FFFFFF;enable-background:new    ;}
</style>
<g id="Layer_1">
	<g>
		
			<linearGradient id="SVGID_1_" gradientUnits="userSpaceOnUse" x1="18.6107" y1="18.5849" x2="60.206" y2="60.1802" gradientTransform="matrix(1 0 0 -1 0 70.6383)">
			<stop  offset="0" style="stop-color:#FFFFFF;stop-opacity:0.7"/>
			<stop  offset="1" style="stop-color:#FFFFFF"/>
		</linearGradient>
		<path class="st0" d="M74.3,31.8c0,9.5-7.7,17.4-17.2,17.4H22.9c-9.5,0-17.2-7.6-17.2-17.1c0-4.7,1.9-9,5-12.1c2-2,4.4-3.4,7.1-4.3
			C18.7,7.1,26,0.1,34.8,0.1s15.7,6,17,14.3h5.3C66.6,14.4,74.3,22.3,74.3,31.8L74.3,31.8z"/>
		
			<linearGradient id="SVGID_00000036252009333127864890000004474342872434159246_" gradientUnits="userSpaceOnUse" x1="18.4728" y1="19.3462" x2="44.1821" y2="45.0555" gradientTransform="matrix(1 0 0 -1 0 70.6383)">
			<stop  offset="0" style="stop-color:#FFFFFF;stop-opacity:0.7"/>
			<stop  offset="1" style="stop-color:#FFFFFF"/>
		</linearGradient>
		<path style="fill:url(#SVGID_00000036252009333127864890000004474342872434159246_);" d="M52.9,38.8c0,5.9-4.7,10.7-10.6,10.7
			H21.1c-5.9,0-10.6-4.7-10.6-10.6c0-2.9,1.2-5.6,3.1-7.5c1.2-1.2,2.7-2.1,4.4-2.6c0.6-5.3,5.1-9.6,10.5-9.6s9.7,3.7,10.5,8.9h3.3
			C48.2,28.1,52.9,32.9,52.9,38.8L52.9,38.8z"/>
		<circle class="st2" cx="34.7" cy="66.3" r="2.3"/>
		<circle class="st2" cx="47.7" cy="61.4" r="3.2"/>
		<circle class="st2" cx="18.4" cy="58.2" r="3.2"/>
	</g>
</g>
</svg>
