<?xml version="1.0" encoding="utf-8"?>
<!-- Generator: Adobe Illustrator 27.2.0, SVG Export Plug-In . SVG Version: 6.00 Build 0)  -->
<svg version="1.1" id="Capa_1" xmlns="http://www.w3.org/2000/svg" xmlns:xlink="http://www.w3.org/1999/xlink" x="0px" y="0px"
	 viewBox="0 0 800 800" style="enable-background:new 0 0 800 800;" xml:space="preserve" fill='#757575'>
<path d="M399.8,0C296.6,0,198.5,39.3,123.7,110.8C49.2,182,5.3,277.6,0.3,380.1c-0.3,5.2,1.6,10.3,5.2,14c3.6,3.8,8.6,5.9,13.8,5.9
	h85.9c10,0,18.3-7.8,19-17.8c9.3-144.9,130.3-258.4,275.6-258.4c152.3,0,276.2,123.9,276.2,276.2S552,676.2,399.8,676.2
	c-34.4,0-68-6.2-99.8-18.6l33-29.3c5.1-4.5,7.4-11.3,6.1-18c-1.3-6.7-6.1-12.1-12.5-14.3l-214.8-61.9c-6.4-2.2-13.5-0.8-18.6,3.7
	c-5.1,4.5-7.4,11.3-6.1,18l45.5,210.6c1.3,6.7,6.1,12.1,12.5,14.3c6.4,2.2,13.5,0.8,18.6-3.7l35.4-31c60.7,35.3,130.1,54,200.7,54
	c220.6,0,400-179.4,400-400C799.8,179.4,620.3,0,399.8,0z"/>
</svg>
